<svg width="140" height="58" viewBox="0 0 140 58" fill="none" xmlns="http://www.w3.org/2000/svg">
<path d="M136.921 57.1364H75.2429V50.7996H136.921V57.1364Z" fill="black"/>
<path d="M37.038 34.3983C38.0456 33.9764 38.9454 33.3904 39.7376 32.6399C40.5285 31.8904 41.1757 30.9761 41.6786 29.8969C42.1814 28.8188 42.4767 27.6232 42.565 26.3098C42.6311 25.3252 42.537 24.4108 42.2833 23.5668C42.0287 22.7228 41.6228 22.0086 41.0652 21.4216C40.5062 20.8359 39.8444 20.3788 39.078 20.0501C38.3112 19.7226 37.426 19.5578 36.4221 19.5578C35.37 19.5578 34.3403 19.7578 33.3344 20.1556C32.3273 20.5546 31.4268 21.1524 30.6327 21.9491C29.8373 22.747 29.178 23.6723 28.6533 24.7274C28.1275 25.7823 27.8216 26.967 27.7334 28.2792C27.6673 29.2638 27.7858 30.1672 28.0891 30.9872C28.3925 31.8081 28.8113 32.5114 29.3456 33.0972C29.8797 33.684 30.5296 34.152 31.2946 34.5039C32.0597 34.8554 32.9442 35.0313 33.948 35.0313C34.999 35.0313 36.0294 34.8202 37.038 34.3983ZM26.4036 42.7329C24.546 41.9131 22.971 40.8109 21.678 39.4272C20.384 38.0446 19.4171 36.427 18.7776 34.5742C18.1368 32.7223 17.8864 30.7651 18.0251 28.7012C18.1953 26.1692 18.8659 23.8251 20.0393 21.6678C21.2117 19.5117 22.714 17.6126 24.5452 15.9707C26.3763 14.33 28.4357 13.0287 30.7231 12.0673C33.0105 11.1067 35.3486 10.6255 37.7396 10.6255C40.0339 10.6255 42.0968 11.0364 43.9308 11.8562C45.7634 12.6771 47.3386 13.7794 48.6563 15.1619C49.9726 16.5454 50.952 18.1632 51.5925 20.015C52.232 21.8679 52.4823 23.8482 52.3405 25.9582C52.1734 28.4441 51.5022 30.7761 50.3282 32.9564C49.1532 35.1368 47.6268 37.0479 45.7486 38.6887C43.869 40.3305 41.7982 41.6195 39.5371 42.5569C37.2748 43.4944 34.9488 43.9636 32.559 43.9636C30.3116 43.9636 28.2597 43.5527 26.4036 42.7329Z" fill="#FFB91C"/>
<path d="M85.2377 44.4284C83.1819 44.4284 81.429 44.0296 79.9786 43.2328C78.5275 42.436 77.3775 41.3809 76.5286 40.0678C75.679 38.7555 75.1772 37.1841 75.0249 35.3553C74.8718 33.5268 75.084 31.6276 75.6627 29.6584L80.7572 11.184H90.4372L85.6767 28.4627C85.4402 29.4012 85.3416 30.2683 85.3824 31.065C85.4219 31.8629 85.6378 32.5772 86.0296 33.2102C86.4206 33.8432 86.9675 34.3478 87.6721 34.7224C88.3752 35.0981 89.253 35.285 90.305 35.285C91.1173 35.285 91.8965 35.1445 92.6415 34.8631C93.3865 34.5816 94.0702 34.1949 94.6927 33.7025C95.3153 33.2102 95.853 32.6014 96.3085 31.8738C96.7628 31.1474 97.1393 30.2451 97.438 29.166L102.412 11.184H112.092L103.069 43.9362H94.2069L95.2026 40.8413C93.9573 41.8261 92.4149 42.6702 90.577 43.3736C88.7381 44.0769 86.9584 44.4284 85.2377 44.4284Z" fill="#FFB91C"/>
<path d="M118.76 33.4563C118.697 34.3948 118.978 35.1916 119.603 35.8478C120.229 36.5048 121.258 36.8323 122.692 36.8323C123.839 36.8323 124.802 36.54 125.584 35.953C126.364 35.3674 126.779 34.6992 126.83 33.9486C126.871 33.3398 126.546 32.8475 125.854 32.4716C125.162 32.0968 124.292 31.7101 123.243 31.3111C122.194 30.9133 121.039 30.5022 119.776 30.0802C118.514 29.6583 117.369 29.0955 116.34 28.3922C115.312 27.6889 114.474 26.8217 113.826 25.7899C113.179 24.759 112.905 23.493 113.006 21.9919C113.101 20.5852 113.515 19.2257 114.248 17.9125C114.982 16.6003 115.956 15.4399 117.171 14.4309C118.386 13.4232 119.814 12.6144 121.457 12.0044C123.099 11.3955 124.9 11.0901 126.861 11.0901C129.155 11.0901 131.119 11.3714 132.755 11.934C134.39 12.4968 135.726 13.2351 136.765 14.1496C137.803 15.0639 138.556 16.1189 139.026 17.3147C139.495 18.5103 139.71 19.7652 139.669 21.0774L130.243 21.5699C130.2 20.7731 129.875 20.117 129.264 19.6004C128.653 19.0851 127.726 18.8269 126.484 18.8269C125.575 18.8269 124.818 19.073 124.211 19.5653C123.605 20.0577 123.279 20.6324 123.235 21.2885C123.198 21.8511 123.523 22.3325 124.214 22.7303C124.904 23.1293 125.774 23.5161 126.825 23.8908C127.875 24.2666 129.006 24.6767 130.22 25.1218C131.432 25.5679 132.553 26.1416 133.582 26.8449C134.61 27.5482 135.447 28.4274 136.093 29.4825C136.739 30.5374 137.008 31.8629 136.901 33.4563C136.804 34.9103 136.376 36.2939 135.619 37.606C134.861 38.9192 133.875 40.0798 132.66 41.0875C131.445 42.0963 130.004 42.9052 128.338 43.5142C126.672 44.1229 124.787 44.4283 122.684 44.4283C120.198 44.4283 118.089 44.1472 116.359 43.5846C114.628 43.0216 113.245 42.2601 112.21 41.2986C111.175 40.3382 110.426 39.2126 109.963 37.9226C109.5 36.6334 109.316 35.2849 109.411 33.8785L118.76 33.4563Z" fill="#FFB91C"/>
<path d="M10.5391 0.136391H20.5694L10.8608 33.8968C10.5602 35.2454 10.6145 36.4844 12.4883 36.4844C14.4769 36.4844 17.4607 36.3603 17.4607 36.3603L15.3931 44.2515C15.3931 44.2515 11.6395 44.807 8.90538 44.7631C2.28836 44.6569 0.100126 42.3792 0.00202222 38.5331C-0.0201301 37.6636 0.141582 36.5843 0.395491 35.3862L10.5391 0.136391Z" fill="#FFB91C"/>
<path d="M62.5635 4.25914H72.6718L70.5605 11.2227H76.8638L74.864 18.6333H68.4966L64.3974 32.6881C64.1062 33.6465 63.95 34.4131 63.9289 34.9882C63.8913 36.0103 64.3868 36.4574 65.8583 36.4574C68.1613 36.4574 70.6612 36.3297 70.6612 36.3297L68.5786 44.2515C68.5786 44.2515 65.361 44.7625 62.61 44.7625C56.4683 44.7625 53.0154 42.9738 53.1938 38.1185C53.2267 37.2242 53.3946 36.1379 53.6927 34.9882L58.3884 18.6333H54.5802L56.4519 11.2227H60.4521L62.5635 4.25914Z" fill="#FFB91C"/>
<path d="M3.54939 53.5916C3.69253 53.4599 3.76427 53.2732 3.76427 53.032C3.76427 52.5227 3.47565 52.268 2.89853 52.268H2.05273V53.7893H2.89853C3.18925 53.7893 3.40624 53.7234 3.54939 53.5916ZM4.38158 53.7022C4.26966 53.9122 4.09085 54.0832 3.84465 54.2148C3.59865 54.3466 3.28324 54.4126 2.89853 54.4126H2.05273V56.3024H1.28784V51.6447H2.89853C3.25645 51.6447 3.55951 51.7062 3.80773 51.829C4.05625 51.952 4.2416 52.1184 4.36481 52.3283C4.4878 52.5384 4.54941 52.773 4.54941 53.032C4.54941 53.2689 4.4934 53.4922 4.38158 53.7022Z" fill="black"/>
<path d="M9.60963 51.6447V56.3024H8.84443V54.2651H6.64997V56.3024H5.88477V51.6447H6.64997V53.6418H8.84443V51.6447H9.60963Z" fill="black"/>
<path d="M13.8171 54.7275L13.059 52.5629L12.2938 54.7275H13.8171ZM14.032 55.3508H12.079L11.7435 56.3024H10.9448L12.616 51.638H13.5017L15.1729 56.3024H14.3675L14.032 55.3508Z" fill="black"/>
<path d="M17.2669 53.8295H18.1127C18.3988 53.8295 18.6148 53.7581 18.7602 53.615C18.9055 53.4721 18.9785 53.2799 18.9785 53.0387C18.9785 52.7974 18.9068 52.6087 18.7636 52.4724C18.6204 52.3361 18.4034 52.268 18.1127 52.268H17.2669V53.8295ZM18.9247 56.3024L17.8508 54.4394H17.2669V56.3024H16.502V51.6447H18.1127C18.4706 51.6447 18.7736 51.7074 19.0219 51.8324C19.2704 51.9575 19.4558 52.125 19.579 52.335C19.702 52.5451 19.7636 52.7796 19.7636 53.0387C19.7636 53.3425 19.6752 53.6184 19.4984 53.8664C19.3217 54.1143 19.0499 54.283 18.683 54.3723L19.8374 56.3024H18.9247Z" fill="black"/>
<path d="M26.26 51.6447V56.3024H25.4948V53.1124L24.0722 56.3024H23.5418L22.1124 53.1124V56.3024H21.3474V51.6447H22.1727L23.8102 55.2972L25.4412 51.6447H26.26Z" fill="black"/>
<path d="M30.4678 54.7275L29.7096 52.5629L28.9444 54.7275H30.4678ZM30.6827 55.3508H28.7297L28.3941 56.3024H27.5955L29.2666 51.638H30.1524L31.8235 56.3024H31.0181L30.6827 55.3508Z" fill="black"/>
<path d="M33.2159 52.7371C33.4283 52.3752 33.717 52.0927 34.0816 51.8894C34.4463 51.6861 34.8456 51.5844 35.2797 51.5844C35.7762 51.5844 36.218 51.7062 36.6051 51.9496C36.992 52.1932 37.2728 52.5383 37.4473 52.9851H36.5278C36.4071 52.7393 36.2394 52.5561 36.0245 52.4355C35.8098 52.3149 35.5615 52.2546 35.2797 52.2546C34.9709 52.2546 34.6958 52.3239 34.4541 52.4624C34.2124 52.6009 34.0235 52.7997 33.8871 53.0588C33.7505 53.318 33.6824 53.6195 33.6824 53.9636C33.6824 54.3076 33.7505 54.6092 33.8871 54.8682C34.0235 55.1273 34.2124 55.3273 34.4541 55.468C34.6958 55.6087 34.9709 55.6791 35.2797 55.6791C35.5615 55.6791 35.8098 55.6188 36.0245 55.4982C36.2394 55.3775 36.4071 55.1944 36.5278 54.9487H37.4473C37.2728 55.3954 36.992 55.7395 36.6051 55.9807C36.218 56.222 35.7762 56.3426 35.2797 56.3426C34.841 56.3426 34.4407 56.2411 34.0784 56.0377C33.7159 55.8345 33.4283 55.5518 33.2159 55.1899C33.0034 54.8281 32.8972 54.4193 32.8972 53.9636C32.8972 53.5078 33.0034 53.0991 33.2159 52.7371Z" fill="black"/>
<path d="M39.7088 52.2613V53.6285H41.3196V54.2518H39.7088V55.6791H41.5209V56.3024H38.9438V51.638H41.5209V52.2613H39.7088Z" fill="black"/>
<path d="M43.8228 51.6447V54.6135C43.8228 54.9665 43.9155 55.2324 44.1012 55.4111C44.2868 55.5898 44.5452 55.6791 44.8764 55.6791C45.2119 55.6791 45.4725 55.5898 45.6583 55.4111C45.8438 55.2324 45.9367 54.9665 45.9367 54.6135V51.6447H46.7019V54.6002C46.7019 54.98 46.6191 55.3016 46.4536 55.5652C46.288 55.8289 46.0665 56.0254 45.7892 56.155C45.5117 56.2846 45.2052 56.3493 44.8697 56.3493C44.534 56.3493 44.2287 56.2846 43.9536 56.155C43.6784 56.0254 43.4604 55.8289 43.2993 55.5652C43.1382 55.3016 43.0576 54.98 43.0576 54.6002V51.6447H43.8228Z" fill="black"/>
<path d="M51.3122 51.6447V52.268H50.0706V56.3024H49.3057V52.268H48.0574V51.6447H51.3122Z" fill="black"/>
<path d="M53.4534 56.3025H52.6882V51.6447H53.4534V56.3025Z" fill="black"/>
<path d="M55.1277 52.7371C55.3402 52.3752 55.6288 52.0927 55.9935 51.8894C56.3579 51.6861 56.7574 51.5844 57.1913 51.5844C57.688 51.5844 58.1298 51.7062 58.5169 51.9496C58.9039 52.1932 59.1847 52.5383 59.3591 52.9851H58.4396C58.3189 52.7393 58.151 52.5561 57.9363 52.4355C57.7217 52.3149 57.4731 52.2546 57.1913 52.2546C56.8827 52.2546 56.6074 52.3239 56.3659 52.4624C56.1243 52.6009 55.9351 52.7997 55.7987 53.0588C55.6621 53.318 55.5942 53.6195 55.5942 53.9636C55.5942 54.3076 55.6621 54.6092 55.7987 54.8682C55.9351 55.1273 56.1243 55.3273 56.3659 55.468C56.6074 55.6087 56.8827 55.6791 57.1913 55.6791C57.4731 55.6791 57.7217 55.6188 57.9363 55.4982C58.151 55.3775 58.3189 55.1944 58.4396 54.9487H59.3591C59.1847 55.3954 58.9039 55.7395 58.5169 55.9807C58.1298 56.222 57.688 56.3426 57.1913 56.3426C56.7529 56.3426 56.3523 56.2411 55.99 56.0377C55.6277 55.8345 55.3402 55.5518 55.1277 55.1899C54.9151 54.8281 54.8088 54.4193 54.8088 53.9636C54.8088 53.5078 54.9151 53.0991 55.1277 52.7371Z" fill="black"/>
<path d="M63.4529 54.7275L62.6947 52.5629L61.9295 54.7275H63.4529ZM63.6678 55.3508H61.7148L61.3792 56.3024H60.5806L62.2517 51.638H63.1375L64.8086 56.3024H64.0032L63.6678 55.3508Z" fill="black"/>
<path d="M66.9024 55.6859H68.4796V56.3024H66.1375V51.6447H66.9024V55.6859Z" fill="black"/>
</svg>
